<svg xmlns="http://www.w3.org/2000/svg"
     viewBox="0 0 1389 1384"
     data-guides="{&quot;vertical&quot;:[],&quot;horizontal&quot;:[]}">

  <defs>
    <style>
      .terrain {
        fill: transparent;
        stroke: #000000;
        stroke-width: 1;
      }

      .pe25 {
        fill: none;
        stroke: #0066CC;
        stroke-width: 16;
        stroke-linecap: round;
        stroke-linejoin: round;
      }

      .pe25-principal {
        fill: #0066CC;
        stroke: #0066CC;
        stroke-width: 25;
      }

      .vanne {
        fill: #CC0000;
        stroke: none;
      }

      .collecteur {
        fill: #CC0000;
        stroke: #8B0000;
        stroke-width: 3;
      }

      .robinet {
        fill: #008000;
        stroke: #008000;
        stroke-width: 1;
      }

      .label-vanne {
        font-family: Arial;
        font-size: 24px;
        fill: #008000;
      }

      .label-collecteur {
        font-family: Arial;
        font-size: 22px;
        fill: #CC0000;
      }

      .label-eau {
        font-family: Arial;
        font-size: 24px;
        font-weight: bold;
        fill: #0066CC;
      }

      .quartier {
        font-family: Arial;
        font-size: 32px;
        font-weight: bold;
        fill: #FF8C00;
      }
    </style>
  </defs>


  <!-- ========================================================= -->
  <!-- TERRAIN — TOUJOURS VISIBLE                               -->
  <!-- ========================================================= -->

  <g id="terrain">

    <!-- Cercle extérieur -->
    <path class="terrain"
      id="tSvg114f3ac8fc0"
      title="Ellipse 2"
      d="M698 2C1079.0765 2 1388 310.9235 1388 692
         C1388 1073.0765 1079.0765 1382 698 1382
         C316.9235 1382 8 1073.0765 8 692
         C8 310.9235 316.9235 2 698 2Z"/>

    <!-- Carré -->
    <path class="terrain"
      id="tSvgdcd24356a9"
      title="Rectangle 1"
      d="M8 2C468 2 928 2 1388 2
         C1388 462 1388 922 1388 1382
         C928 1382 468 1382 8 1382
         C8 922 8 462 8 2Z"/>

    <!-- Quadrants -->
    <line class="terrain"
      id="tSvge2f3c9027e"
      title="QUART2"
      x1="698" y1="692" x2="1388" y2="1382"/>

    <line class="terrain"
      id="tSvgdccaa349ec"
      title="QUART3"
      x1="698" y1="692" x2="1" y2="1383"/>

    <line class="terrain"
      id="tSvg71ea931e4f"
      title="QUART4"
      x1="8" y1="2" x2="698" y2="692"/>

    <line class="terrain"
      id="tSvg160b4eea15c"
      title="QUART1"
      x1="1388" y1="2" x2="698" y2="692"/>


    <!-- ===================================================== -->
    <!-- PARCELLES                                             -->
    <!-- ===================================================== -->

    <path class="terrain"
      id="tSvgd3f9ea660f"
      title="P0"
      d="M620 1C670 1 720 1 770 1
         C770 117.6667 770 234.3333 770 351
         C720 351 670 351 620 351
         C620 234.3333 620 117.6667 620 1Z"/>

    <path class="terrain"
      id="tSvg8ec0c5e1ad"
      title="P1"
      d="M975.5481 54.9456
         C1018.8494 79.9456 1062.1506 104.9456 1105.4519 129.9456
         C1047.1186 230.9819 988.7852 332.0181 930.4519 433.0544
         C887.1506 408.0544 843.8494 383.0544 800.5481 358.0544
         C858.8814 257.0181 917.2148 155.9819 975.5481 54.9456Z"/>

    <path class="terrain"
      id="tSvg7443e932ae"
      title="P11"
      d="M284.5481 132.9456
         C327.8494 107.9456 371.1506 82.9456 414.4519 57.9456
         C472.7852 158.9819 531.1186 260.0181 589.4519 361.0544
         C546.1506 386.0544 502.8494 411.0544 459.5481 436.0544
         C401.2148 335.0181 342.8814 233.9819 284.5481 132.9456Z"/>

    <path class="terrain"
      id="tSvg18c064280a4"
      title="P8"
      d="M138.9456 1104.4519
         C113.9456 1061.1506 88.9456 1017.8494 63.9456 974.5481
         C164.9819 916.2148 266.0181 857.8814 367.0544 799.5481
         C392.0544 842.8494 417.0544 886.1506 442.0544 929.4519
         C341.0181 987.7852 239.9819 1046.1186 138.9456 1104.4519Z"/>

    <path class="terrain"
      id="tSvg57b8662222"
      title="P10"
      d="M60.9456 414.4519
         C85.9456 371.1506 110.9456 327.8494 135.9456 284.5481
         C236.9819 342.8814 338.0181 401.2148 439.0544 459.5481
         C414.0544 502.8494 389.0544 546.1506 364.0544 589.4519
         C263.0181 531.1186 161.9819 472.7852 60.9456 414.4519Z"/>

    <path class="terrain"
      id="tSvgd7ac58eff5"
      title="P7"
      d="M420.4519 1328.0544
         C377.1506 1303.0544 333.8494 1278.0544 290.5481 1253.0544
         C348.8814 1152.0181 407.2148 1050.9819 465.5481 949.9456
         C508.8494 974.9456 552.1506 999.9456 595.4519 1024.9456
         C537.1186 1125.9819 478.7852 1227.0181 420.4519 1328.0544Z"/>

    <path class="terrain"
      id="tSvg10995cc969d"
      title="P5"
      d="M1110.4519 1250.0544
         C1067.1506 1275.0544 1023.8494 1300.0544 980.5481 1325.0544
         C922.2148 1224.0181 863.8814 1122.9819 805.5481 1021.9456
         C848.8494 996.9456 892.1506 971.9456 935.4519 946.9456
         C993.7852 1047.9819 1052.1186 1149.0181 1110.4519 1250.0544Z"/>

    <path class="terrain"
      id="tSvgccd884f1ce"
      title="P4"
      d="M1334.0544 969.5481
         C1309.0544 1012.8494 1284.0544 1056.1506 1259.0544 1099.4519
         C1158.0181 1041.1186 1056.9819 982.7852 955.9456 924.4519
         C980.9456 881.1506 1005.9456 837.8494 1030.9456 794.5481
         C1131.9819 852.8814 1233.0181 911.2148 1334.0544 969.5481Z"/>

    <path class="terrain"
      id="tSvg7b1d59572c"
      title="P2"
      d="M1255.0544 278.5481
         C1280.0544 321.8494 1305.0544 365.1506 1330.0544 408.4519
         C1229.0181 466.7852 1127.9819 525.1186 1026.9456 583.4519
         C1001.9456 540.1506 976.9456 496.8494 951.9456 453.5481
         C1052.9819 395.2148 1154.0181 336.8814 1255.0544 278.5481Z"/>

    <path class="terrain"
      id="tSvg7acda4f5d7"
      title="P9"
      d="M8 617C124.6667 617 241.3333 617 358 617
         C358 667 358 717 358 767
         C241.3333 767 124.6667 767 8 767
         C8 717 8 667 8 617Z"/>

    <path class="terrain"
      id="tSvg72eedf596c"
      title="P3"
      d="M1038 617C1154.6667 617 1271.3333 617 1388 617
         C1388 667 1388 717 1388 767
         C1271.3333 767 1154.6667 767 1038 767
         C1038 717 1038 667 1038 617Z"/>

    <path class="terrain"
      id="tSvg123309966f4"
      title="P6"
      d="M620 1032C670 1032 720 1032 770 1032
         C770 1148.6667 770 1265.3333 770 1382
         C720 1382 670 1382 620 1382
         C620 1265.3333 620 1148.6667 620 1032Z"/>


    <!-- ===================================================== -->
    <!-- LABELS PARCELLES                                     -->
    <!-- ===================================================== -->

    <g id="labels-parcelles"
       font-family="Arial"
       font-size="46"
       fill="#000000"
       text-anchor="middle">

      <text x="432.5" y="260.1">P1</text>
      <text x="695" y="192.1">P2</text>
      <text x="953" y="280.1">P3</text>
      <text x="1130.5" y="453.1">P4</text>
      <text x="1174" y="708.1">P5</text>
      <text x="1148.5" y="968.1">P6</text>

    </g>


    <!-- Cercle central -->
    <path class="terrain"
      id="tSvg167272cef4e"
      title="Ellipse 3"
      d="M698 592
         C753.2285 592 798 636.7715 798 692
         C798 747.2285 753.2285 792 698 792
         C642.7715 792 598 747.2285 598 692
         C598 636.7715 642.7715 592 698 592Z"/>


    <!-- ===================================================== -->
    <!-- POINTS CARDINAUX                                     -->
    <!-- ===================================================== -->

    <text x="690" y="70"
          class="quartier"
          text-anchor="middle">NORD</text>

    <text x="1310" y="705"
          class="quartier"
          text-anchor="middle">EST</text>

    <text x="690" y="1310"
          class="quartier"
          text-anchor="middle">SUD</text>

    <text x="70" y="705"
          class="quartier"
          text-anchor="middle">OUEST</text>

  </g>



  <!-- ========================================================= -->
  <!-- ÉTAPE 1 — ARRIVÉE PE25 + VANNE GÉNÉRALE                  -->
  <!-- ========================================================= -->

  <g id="etape-1"
     data-etape="1"
     data-description="Arrivée PE25 et vanne générale">

    <!-- Arrivée principale PE25 -->
    <line class="pe25-principal"
          id="pe25-arrivee"
          x1="1346" y1="1340"
          x2="860" y2="852"/>

    <!-- Point d'entrée -->
    <circle class="vanne"
            cx="1340"
            cy="1340"
            r="10"/>

    <!-- Vanne générale -->
    <circle class="vanne"
            cx="850"
            cy="850"
            r="13"/>

    <!-- Indication -->
    <text x="1170" y="1325"
          class="label-eau"
          text-anchor="middle">
      Arrivée d'eau PE25
    </text>

    <text x="870" y="845"
          font-family="Arial"
          font-size="24"
          font-weight="bold"
          fill="#CC0000">
      Vanne générale
    </text>

  </g>



  <!-- ========================================================= -->
  <!-- ÉTAPE 2 — DÉPART VERS AQ1 / NORD                         -->
  <!-- ========================================================= -->

  <g id="etape-2"
     data-etape="2"
     data-description="Départ PE25 vers le collecteur AQ1"
      >

    <!-- Liaison centrale → AQ1 -->
    <line class="pe25"
          id="pe25-vers-aq1"
          x1="850"
          y1="846"
          x2="698"
          y2="511.19"/>

    <!-- Regard / collecteur AQ1 -->
    <circle class="collecteur"
            cx="698"
            cy="511.19"
            r="16"/>

    <text x="720" y="505"
          class="label-collecteur">
      Regard / Collecteur AQ1
    </text>

  </g>



  <!-- ========================================================= -->
  <!-- ÉTAPE 3 — DISTRIBUTION AQ1 → P1 / P2 / P3               -->
  <!-- ========================================================= -->

  <g id="etape-3"
     data-etape="3"
     data-description="Distribution PE25 vers P1, P2 et P3" 
      style="display:none"
      >

    <!-- AQ1 → P1 -->
    <line class="pe25"
          id="pe25-aq1-p1"
          x1="698"
          y1="511.19"
          x2="507"
          y2="416.75"/>

    <!-- AQ1 → P2 -->
    <line class="pe25"
          id="pe25-aq1-p2"
          x1="698"
          y1="511.19"
          x2="691"
          y2="362"/>

    <!-- AQ1 → P3 -->
    <line class="pe25"
          id="pe25-aq1-p3"
          x1="698"
          y1="511.19"
          x2="888"
          y2="402"/>


    <!-- ===================================================== -->
    <!-- VANNES EN DÉBUT DE PARCELLE                           -->
    <!-- ===================================================== -->

    <!-- Vanne P1 -->
    <path class="robinet"
          d="M516.5864 356
             L543.0002 416.75
             H490.1727 Z"/>

    <text x="550" y="405"
          class="label-vanne">
      Vanne P1
    </text>


    <!-- Vanne P2 -->
    <path class="robinet"
          d="M704.5864 316.625
             L731.0002 377.375
             H678.1727 Z"/>

    <text x="735" y="370"
          class="label-vanne">
      Vanne P2
    </text>


    <!-- Vanne P3 -->
    <path class="robinet"
          d="M873.9199 356
             L900.3337 416.75
             H847.5062 Z"/>

    <text x="905" y="410"
          class="label-vanne">
      Vanne P3
    </text>

  </g>



  <!-- ========================================================= -->
  <!-- ÉTAPES FUTURES — PRÉPARÉES MAIS VIDES                   -->
  <!-- ========================================================= -->

  <!--
  <g id="etape-4"
     data-etape="4"
     data-description="Distribution AQ2">
  </g>

  <g id="etape-5"
     data-etape="5"
     data-description="Distribution AQ3">
  </g>

  <g id="etape-6"
     data-etape="6"
     data-description="Distribution AQ4">
  </g>
  -->


</svg>
